<?xml version="1.0" standalone="no"?>
<!DOCTYPE svg PUBLIC "-//W3C//DTD SVG 20010904//EN"
 "http://www.w3.org/TR/2001/REC-SVG-20010904/DTD/svg10.dtd">
<svg version="1.0" xmlns="http://www.w3.org/2000/svg"
 width="260.000000pt" height="260.000000pt" viewBox="0 0 260.000000 260.000000"
 preserveAspectRatio="xMidYMid meet">
<metadata>
Created by potrace 1.14, written by Peter Selinger 2001-2017
</metadata>
<g transform="translate(0.000000,260.000000) scale(0.100000,-0.100000)"
fill="#000000" stroke="none">
<path d="M2468 2590 c-13 -8 -14 -14 -5 -34 7 -13 14 -23 17 -21 3 2 6 -7 6
-20 0 -17 -3 -21 -11 -15 -7 6 -16 6 -21 2 -4 -4 -3 0 3 8 8 10 9 21 3 30 -9
14 -12 7 -9 -16 0 -4 -5 -10 -11 -14 -9 -5 -6 -10 9 -15 11 -3 21 -11 21 -17
0 -6 -7 -5 -16 3 -15 12 -16 11 -11 -11 4 -14 4 -19 1 -12 -3 6 -10 10 -14 7
-5 -3 -12 0 -16 6 -4 8 -3 9 4 5 7 -4 12 -2 12 4 0 7 -6 10 -12 7 -7 -2 -12
-11 -10 -21 2 -9 -4 -16 -12 -16 -10 0 -13 7 -11 21 3 12 1 18 -3 15 -4 -4 -7
-13 -7 -19 0 -7 -9 -11 -20 -9 -17 2 -18 1 -5 -8 11 -9 12 -13 3 -17 -7 -2
-13 -10 -13 -16 1 -7 9 -2 19 10 16 20 21 21 31 8 7 -8 17 -12 23 -8 6 3 7 1
3 -6 -6 -9 -11 -9 -21 -1 -18 15 -36 4 -29 -18 5 -14 4 -15 -5 -2 -6 8 -11 12
-12 8 -5 -27 -4 -35 5 -48 6 -8 0 -6 -13 5 l-24 20 5 -23 c4 -15 3 -20 -5 -15
-17 11 -38 13 -32 3 3 -5 -4 -11 -15 -15 -11 -3 -20 -11 -20 -16 0 -5 11 -2
25 7 26 17 42 14 31 -5 -4 -6 -14 -7 -23 -4 -12 5 -14 3 -8 -7 5 -8 4 -11 -3
-6 -6 3 -16 -2 -22 -11 -10 -16 -11 -16 -6 -1 3 10 0 20 -6 24 -7 5 -8 2 -3
-6 6 -10 4 -12 -10 -6 -15 5 -16 4 -6 -8 10 -12 9 -20 -3 -39 -9 -13 -13 -27
-9 -31 5 -4 1 -6 -7 -4 -8 2 -14 -3 -12 -10 1 -8 -1 -11 -6 -8 -5 3 -16 -9
-26 -25 -17 -29 -19 -30 -43 -14 -13 9 -30 14 -36 11 -7 -2 -5 -5 4 -5 9 -1
23 -9 30 -18 10 -11 10 -14 2 -9 -8 4 -13 2 -13 -4 0 -6 -5 -8 -10 -5 -6 4 -7
12 -3 18 3 7 -3 4 -15 -7 -12 -10 -19 -22 -17 -26 7 -11 -20 -31 -29 -22 -4 4
-6 3 -4 -3 1 -5 -10 -26 -25 -46 -15 -20 -26 -43 -24 -50 2 -8 2 -11 0 -6 -3
4 -9 5 -14 2 -5 -4 -6 2 -3 12 5 13 2 12 -10 -4 -9 -12 -27 -30 -39 -39 -14
-11 -16 -14 -5 -11 10 4 20 2 23 -3 4 -6 -2 -10 -13 -10 -10 0 -27 -9 -36 -19
-10 -11 -25 -17 -34 -14 -14 4 -15 3 -2 -5 8 -6 18 -8 22 -6 14 9 8 -10 -10
-34 -17 -21 -18 -22 -18 -3 0 11 5 17 10 14 5 -3 6 -1 2 5 -11 18 -29 14 -22
-4 4 -12 2 -15 -9 -10 -8 3 -14 0 -12 -7 1 -7 -7 -11 -18 -9 -16 2 -17 1 -5
-7 8 -6 11 -11 6 -11 -5 0 -1 -10 10 -22 10 -13 15 -20 10 -15 -5 4 -18 -1
-29 -10 -11 -10 -17 -12 -13 -5 4 7 2 12 -5 12 -6 0 -9 -8 -6 -19 5 -20 -7
-22 -32 -7 -10 6 -12 5 -7 -2 4 -7 2 -12 -3 -12 -6 0 -11 -4 -11 -8 0 -5 7 -9
15 -9 8 0 11 5 8 10 -3 6 -1 7 5 3 6 -4 8 -14 5 -22 -5 -13 -7 -13 -14 -2 -9
13 -10 11 -13 -14 -1 -7 -10 -12 -20 -10 -11 2 -15 -1 -11 -7 3 -7 0 -8 -9 -5
-9 3 -13 10 -10 15 3 5 -2 6 -11 3 -13 -5 -13 -9 5 -24 18 -16 18 -18 4 -24
-9 -3 -20 -3 -26 0 -5 3 -12 -3 -15 -15 -3 -11 -9 -19 -13 -16 -4 3 -11 -2
-14 -11 -3 -8 -11 -12 -17 -8 -8 4 -9 3 -5 -4 4 -7 1 -12 -9 -12 -15 0 -15 -1
-1 -16 23 -23 19 -27 -8 -9 -18 12 -26 13 -32 4 -4 -8 -3 -9 4 -5 7 4 12 1 12
-9 0 -9 -4 -13 -10 -10 -19 12 -31 -5 -19 -26 8 -16 7 -25 -5 -38 -9 -10 -13
-21 -9 -24 3 -4 1 -7 -5 -7 -6 0 -14 9 -17 20 -4 11 -11 17 -17 14 -6 -4 -5
-10 3 -15 8 -5 10 -9 5 -9 -5 0 -2 -8 5 -17 8 -9 9 -14 3 -10 -13 7 -60 -30
-56 -45 1 -5 -7 -4 -18 2 -14 8 -20 8 -20 0 0 -6 -4 -8 -10 -5 -5 3 -10 1 -10
-5 0 -7 8 -9 19 -5 11 3 22 1 26 -4 4 -7 -1 -8 -11 -4 -14 5 -16 3 -11 -12 7
-17 6 -17 -20 0 -26 17 -27 17 -14 1 13 -16 13 -17 -5 -14 -14 2 -20 -4 -22
-21 -2 -15 0 -21 7 -17 6 4 11 2 11 -4 0 -8 -10 -10 -27 -6 -27 6 -27 6 -8
-10 18 -15 18 -16 2 -10 -10 3 -23 6 -28 6 -4 0 -6 8 -2 18 3 9 3 14 -1 10 -4
-3 -9 -14 -11 -25 -1 -10 -8 -17 -15 -15 -6 1 -9 -2 -6 -7 4 -5 -1 -16 -9 -25
-13 -13 -13 -15 5 -21 24 -7 25 -18 6 -34 -10 -8 -16 -9 -21 -1 -9 15 -22 12
-29 -7 -4 -11 -1 -22 9 -29 13 -10 11 -11 -14 -10 -23 0 -27 4 -19 13 6 7 7
13 3 13 -4 0 -2 7 5 15 11 13 10 14 -4 9 -10 -4 -15 -12 -12 -19 7 -19 -21
-27 -38 -10 -7 8 -17 11 -21 7 -5 -4 -5 -2 -2 5 4 6 1 14 -5 16 -10 4 -10 6
-1 6 7 1 10 8 7 16 -5 11 -2 14 12 9 11 -4 16 -4 12 1 -4 4 -17 8 -28 9 -11 0
-20 5 -19 10 0 5 -13 18 -30 28 -25 16 -29 23 -21 38 16 30 11 34 -10 9 -11
-13 -20 -19 -19 -14 1 6 1 17 0 25 -1 13 -3 13 -12 0 -9 -12 -10 -11 -4 5 15
43 14 54 -2 48 -12 -5 -14 -3 -8 7 5 8 4 11 -3 6 -6 -3 -13 -2 -17 3 -3 6 -13
8 -23 5 -16 -5 -16 -5 1 6 25 16 21 33 -7 28 -16 -3 -27 0 -30 9 -3 8 -2 11 3
8 5 -3 12 -2 15 3 2 4 -4 9 -15 9 -13 1 -19 -5 -19 -19 0 -12 -3 -19 -6 -15
-11 11 6 58 18 51 7 -4 8 -3 4 5 -6 9 -11 9 -22 0 -17 -14 -19 2 -1 21 10 12
9 12 -4 2 -9 -6 -19 -8 -24 -4 -4 4 -2 -4 4 -16 7 -13 10 -26 7 -29 -3 -3 -9
3 -13 13 -4 10 -14 25 -22 32 -14 10 -13 11 4 5 20 -6 20 -6 1 15 -16 19 -17
24 -5 39 8 9 9 14 2 10 -6 -4 -14 -3 -18 3 -4 6 -11 8 -16 5 -5 -4 -10 -1 -10
4 -1 6 -2 16 -3 23 0 6 -8 13 -16 15 -12 4 -12 3 -1 -5 10 -7 10 -11 1 -17
-14 -9 -30 12 -23 31 2 6 0 15 -6 19 -7 4 -9 -1 -5 -12 5 -16 4 -16 -10 1 -11
14 -16 15 -16 6 0 -9 -5 -7 -14 5 -8 11 -12 23 -9 27 2 5 -6 12 -18 16 -18 7
-19 10 -6 15 15 5 33 -17 28 -36 -1 -5 4 -5 10 -1 8 4 9 3 5 -4 -4 -8 -2 -10
7 -6 12 4 10 10 -8 28 -12 12 -24 29 -27 37 -4 11 -8 12 -19 2 -22 -22 -33
-14 -13 9 10 12 14 18 8 15 -14 -8 -37 16 -26 28 4 5 2 5 -5 2 -6 -4 -14 -1
-16 5 -4 10 -6 10 -6 0 -1 -7 -5 -10 -11 -7 -6 3 -10 1 -10 -5 0 -7 7 -9 16
-6 10 4 13 2 8 -6 -5 -7 -3 -8 6 -3 9 5 11 4 6 -3 -5 -8 -13 -9 -25 -2 -10 5
-22 6 -27 2 -4 -4 0 5 9 20 9 15 17 31 17 35 0 4 -5 1 -10 -7 -7 -11 -10 -11
-10 -2 0 7 -4 11 -9 8 -4 -3 -7 6 -5 20 1 15 -4 28 -12 31 -8 3 -14 12 -14 20
0 9 -6 13 -14 10 -16 -7 -44 24 -38 43 2 9 0 11 -5 5 -11 -14 -64 -15 -55 -1
9 14 12 36 5 36 -3 0 -12 -8 -20 -17 -11 -14 -11 -11 1 9 14 24 14 27 0 39 -9
7 -20 22 -23 33 -7 19 -8 19 -13 -2 -4 -14 -2 -20 4 -15 7 4 8 1 3 -7 -6 -9
-4 -11 6 -5 8 5 10 4 6 0 -10 -11 -39 -16 -32 -5 3 4 -6 15 -20 24 -21 14 -23
20 -15 36 13 24 13 40 -1 18 -11 -20 -29 -24 -29 -7 0 5 5 7 10 4 6 -3 10 -1
10 4 0 6 -6 11 -12 11 -9 0 -8 4 2 10 8 5 10 10 4 10 -5 0 -15 -5 -22 -12 -9
-9 -12 -9 -12 0 0 6 8 16 17 21 19 11 17 11 -32 16 -58 5 -61 6 -40 14 11 5
25 4 33 -1 6 -6 12 -9 13 -7 7 36 7 41 -3 31 -13 -13 -40 -4 -31 11 3 6 1 7
-6 3 -6 -4 -8 -13 -5 -19 4 -7 -5 -1 -19 12 -15 14 -27 31 -27 38 0 8 -4 12
-9 8 -12 -7 -36 34 -32 55 2 12 0 13 -10 2 -16 -15 -29 -16 -29 -1 0 5 4 8 9
5 5 -3 14 1 21 9 10 12 10 15 0 15 -9 0 -9 4 1 18 12 15 12 16 -1 5 -19 -14
-56 -10 -52 6 1 6 -2 11 -8 11 -5 0 -10 -4 -10 -10 0 -16 5 -25 12 -23 3 1 8
-3 11 -10 3 -7 -3 -13 -13 -13 -10 0 -17 3 -14 7 2 4 -3 9 -11 13 -13 4 -14
-140 -15 -1154 l0 -1160 1300 0 1300 0 0 1300 0 1300 -57 0 c-32 0 -65 -5 -75
-10z m23 -27 c13 -17 13 -17 -6 -3 -11 8 -22 16 -24 17 -2 2 0 3 6 3 6 0 17
-8 24 -17z m-2406 -261 c-3 -3 -11 0 -18 7 -9 10 -8 11 6 5 10 -3 15 -9 12
-12z m2105 -122 c0 -5 -5 -10 -11 -10 -5 0 -7 5 -4 10 3 6 8 10 11 10 2 0 4
-4 4 -10z m-2020 -14 c0 -3 -4 -8 -10 -11 -5 -3 -10 -1 -10 4 0 6 5 11 10 11
6 0 10 -2 10 -4z m1915 -54 c-8 -8 -25 10 -19 20 4 6 9 5 15 -3 4 -7 6 -15 4
-17z m-11 -28 c5 -14 4 -15 -9 -4 -8 7 -15 10 -15 6 0 -18 -3 -22 -23 -33 -13
-7 -16 -12 -8 -13 8 0 12 -3 8 -6 -3 -3 -11 -3 -17 1 -8 5 -3 17 16 36 32 33
39 35 48 13z m-14 -44 c0 -5 -2 -10 -4 -10 -3 0 -8 5 -11 10 -3 6 -1 10 4 10
6 0 11 -4 11 -10z m-56 -31 c-3 -5 -10 -7 -15 -3 -5 3 -7 10 -3 15 3 5 10 7
15 3 5 -3 7 -10 3 -15z m-1619 -19 c3 -5 1 -10 -4 -10 -6 0 -11 5 -11 10 0 6
2 10 4 10 3 0 8 -4 11 -10z m1569 -26 c5 -13 4 -14 -7 -6 -8 7 -18 8 -22 4 -5
-4 -5 -1 -1 6 10 17 23 15 30 -4z m-22 -46 c-4 -4 -20 -9 -35 -12 -23 -4 -26
-2 -17 8 6 8 22 13 35 12 13 0 21 -4 17 -8z m-1459 -54 c-7 -18 -15 -18 -11 0
2 8 -1 15 -7 14 -5 0 -9 -4 -7 -10 1 -5 -2 -7 -8 -3 -6 3 -8 10 -5 15 3 4 -3
11 -12 14 -15 6 -15 8 -3 16 18 11 61 -26 53 -46z m53 -31 c1 -7 -3 -13 -8
-13 -4 0 -8 7 -8 15 0 8 -4 15 -10 15 -5 0 -10 7 -10 15 0 12 3 12 18 -2 10
-10 18 -24 18 -30z m1364 33 c0 -2 -7 -7 -16 -10 -8 -3 -12 -2 -9 4 6 10 25
14 25 6z m-67 -31 c4 -8 1 -17 -5 -21 -7 -5 -8 -2 -3 6 6 10 4 12 -10 6 -15
-5 -16 -4 -5 9 15 19 16 19 23 0z m-1205 -99 c-2 -1 -12 -8 -22 -16 -18 -14
-18 -14 -6 7 8 12 18 19 23 16 4 -3 7 -6 5 -7z m1022 -101 c11 -13 10 -14 -4
-9 -9 3 -16 10 -16 15 0 13 6 11 20 -6z m-920 -30 c0 -12 -19 -12 -23 0 -4 9
-1 12 9 8 7 -3 14 -7 14 -8z m896 -1 c-9 -8 -14 -19 -11 -24 3 -5 1 -12 -5
-15 -6 -4 -10 -3 -9 2 3 20 -2 27 -11 13 -6 -9 -10 -10 -10 -3 0 12 38 43 53
43 5 0 1 -7 -7 -16z m-836 -39 c5 3 12 0 16 -7 4 -7 4 -10 -1 -6 -4 4 -15 3
-24 -1 -13 -7 -16 -4 -18 17 -1 22 0 23 9 9 5 -10 13 -15 18 -12z m7 -47 c-3
-8 -6 -5 -6 6 -1 11 2 17 5 13 3 -3 4 -12 1 -19z m738 12 c4 -6 11 -7 17 -4 7
4 8 2 4 -4 -5 -9 -13 -9 -27 -2 -10 6 -19 13 -19 15 0 9 19 5 25 -5z m-573
-165 c0 -5 -5 -10 -11 -11 -8 -2 -7 -1 0 3 8 4 7 8 -2 15 -11 8 -11 9 -1 6 8
-2 14 -8 14 -13z m407 -38 c13 4 13 3 2 -5 -16 -12 -41 -5 -41 11 0 8 3 8 11
0 6 -6 19 -9 28 -6z m-74 -67 c3 -5 1 -10 -4 -10 -6 0 -11 5 -11 10 0 6 2 10
4 10 3 0 8 -4 11 -10z m-21 -16 c3 -8 2 -12 -4 -9 -6 3 -10 1 -10 -4 0 -6 -5
-11 -10 -11 -7 0 -7 6 0 20 13 24 16 25 24 4z m-44 -88 c14 -18 14 -19 -8 -7
-12 7 -20 17 -16 22 3 6 7 9 8 7 1 -2 8 -12 16 -22z"/>
<path d="M2316 2401 c-19 -7 -19 -8 0 -13 13 -3 21 0 21 8 0 8 -1 14 -1 13 -1
0 -10 -4 -20 -8z"/>
<path d="M2185 2280 c-4 -6 1 -7 11 -3 15 6 14 1 -5 -25 -12 -18 -27 -30 -32
-27 -5 4 -9 1 -9 -4 0 -20 18 -11 44 21 23 30 26 48 6 48 -5 0 -12 -4 -15 -10z"/>
<path d="M117 2273 c-3 -4 1 -17 9 -28 14 -19 15 -19 11 2 -4 26 -13 38 -20
26z"/>
<path d="M150 2251 c0 -5 7 -12 16 -15 14 -5 15 -4 4 9 -14 17 -20 19 -20 6z"/>
<path d="M165 2211 c-9 -15 15 -25 28 -12 9 9 7 10 -7 5 -13 -5 -17 -4 -12 4
4 7 5 12 2 12 -3 0 -7 -4 -11 -9z"/>
<path d="M2123 2203 c4 -6 2 -13 -4 -15 -7 -2 -5 -9 5 -17 14 -12 16 -12 10 4
-5 12 -4 16 4 11 6 -3 14 -1 18 6 4 7 4 10 -1 6 -4 -4 -15 -2 -23 5 -11 8 -14
8 -9 0z"/>
<path d="M315 2056 c-18 -13 -18 -14 6 -25 19 -9 21 -9 7 1 -15 11 -15 13 0
25 23 17 11 17 -13 -1z"/>
<path d="M415 1980 c3 -5 8 -10 11 -10 2 0 4 5 4 10 0 6 -5 10 -11 10 -5 0 -7
-4 -4 -10z"/>
<path d="M416 1943 c-6 -14 -5 -15 5 -6 7 7 10 15 7 18 -3 3 -9 -2 -12 -12z"/>
<path d="M1770 1799 c0 -5 5 -7 10 -4 6 3 10 8 10 11 0 2 -4 4 -10 4 -5 0 -10
-5 -10 -11z"/>
<path d="M1674 1733 c13 -3 15 -7 7 -13 -10 -5 -9 -9 2 -13 10 -4 14 0 13 11
-2 9 -11 18 -22 19 -19 2 -19 2 0 -4z"/>
<path d="M816 1541 c-4 -5 -2 -12 4 -16 5 -3 10 -3 10 2 0 4 5 1 10 -7 5 -8
10 -10 10 -4 0 17 -27 37 -34 25z"/>
<path d="M1473 1491 c1 -15 4 -17 14 -9 7 5 10 14 7 19 -10 16 -23 9 -21 -10z"/>
<path d="M1414 1459 c-4 -8 -3 -9 4 -5 16 10 15 -2 -1 -18 -7 -7 -20 -12 -30
-10 -20 3 -23 -11 -4 -19 7 -2 25 6 39 18 22 19 25 25 13 35 -10 8 -15 8 -21
-1z"/>
<path d="M996 1342 c-2 -4 -1 -14 4 -22 7 -11 9 -9 7 8 -1 24 -3 26 -11 14z"/>
<path d="M1036 1297 c-15 -11 -14 -14 14 -30 18 -11 28 -23 24 -30 -4 -7 -3
-8 1 -4 12 10 15 38 4 31 -5 -3 -10 0 -10 5 -3 26 -4 30 -10 35 -3 3 -13 0
-23 -7z m21 -12 c0 -8 -4 -12 -9 -9 -5 3 -6 10 -3 15 9 13 12 11 12 -6z"/>
<path d="M1217 1195 c3 -8 9 -12 14 -9 12 7 11 11 -5 17 -10 4 -13 1 -9 -8z"/>
<path d="M1106 1191 c-3 -5 2 -16 12 -24 16 -15 18 -15 19 3 2 19 -22 35 -31
21z"/>
</g>
</svg>
